<svg width="1200" height="720" viewBox="0 0 1200 720" fill="none" xmlns="http://www.w3.org/2000/svg">
  <defs>
    <linearGradient id="ocrPanel" x1="132" y1="72" x2="1081" y2="642" gradientUnits="userSpaceOnUse">
      <stop stop-color="#192334"/>
      <stop offset="1" stop-color="#0F1623"/>
    </linearGradient>
    <linearGradient id="ocrScan" x1="722" y1="166" x2="1008" y2="425" gradientUnits="userSpaceOnUse">
      <stop stop-color="#FFA23E"/>
      <stop offset="1" stop-color="#10B981"/>
    </linearGradient>
  </defs>
  <rect width="1200" height="720" fill="#0D131C"/>
  <circle cx="152" cy="132" r="120" fill="#FFA23E" fill-opacity="0.12"/>
  <circle cx="1080" cy="564" r="154" fill="#10B981" fill-opacity="0.12"/>
  <rect x="92" y="72" width="1016" height="576" rx="36" fill="url(#ocrPanel)" stroke="#2A374B" stroke-width="4"/>
  <rect x="154" y="128" width="430" height="460" rx="26" fill="#F8FAFC"/>
  <rect x="188" y="172" width="146" height="20" rx="10" fill="#273344"/>
  <rect x="188" y="214" width="322" height="14" rx="7" fill="#A0AFC1"/>
  <rect x="188" y="250" width="274" height="14" rx="7" fill="#A0AFC1"/>
  <rect x="188" y="286" width="238" height="14" rx="7" fill="#A0AFC1"/>
  <rect x="188" y="340" width="362" height="76" rx="18" fill="#EFF4F8"/>
  <rect x="188" y="438" width="150" height="12" rx="6" fill="#CBD5E1"/>
  <rect x="188" y="466" width="202" height="12" rx="6" fill="#CBD5E1"/>
  <rect x="188" y="494" width="176" height="12" rx="6" fill="#CBD5E1"/>
  <rect x="678" y="154" width="316" height="316" rx="34" fill="#151E2B" stroke="#324254" stroke-width="3"/>
  <rect x="720" y="196" width="232" height="232" rx="28" fill="#121A28"/>
  <rect x="744" y="220" width="184" height="184" rx="24" stroke="url(#ocrScan)" stroke-width="6"/>
  <rect x="760" y="236" width="152" height="152" rx="18" fill="#FFA23E" fill-opacity="0.12"/>
  <path d="M760 292H912" stroke="#10B981" stroke-width="6" stroke-linecap="round"/>
  <path d="M760 322H912" stroke="#10B981" stroke-width="6" stroke-linecap="round" stroke-opacity="0.65"/>
  <path d="M952 386L1018 452" stroke="#FFA23E" stroke-width="16" stroke-linecap="round"/>
  <circle cx="1018" cy="452" r="28" stroke="#FFA23E" stroke-width="10"/>
  <rect x="652" y="520" width="338" height="18" rx="9" fill="#3F5166"/>
  <rect x="652" y="552" width="248" height="14" rx="7" fill="#2D3C4F"/>
  <text x="154" y="620" fill="#F8FAFC" font-family="Arial, sans-serif" font-size="46" font-weight="700">Invoice OCR System</text>
  <text x="154" y="654" fill="#93A5BC" font-family="Arial, sans-serif" font-size="22">Document parsing and field extraction with scan-frame visualization</text>
</svg>
