<svg width="1200" height="720" viewBox="0 0 1200 720" fill="none" xmlns="http://www.w3.org/2000/svg">
  <defs>
    <linearGradient id="umkmBg" x1="112" y1="90" x2="1060" y2="626" gradientUnits="userSpaceOnUse">
      <stop stop-color="#152232"/>
      <stop offset="1" stop-color="#0E1724"/>
    </linearGradient>
    <linearGradient id="umkmPhone" x1="146" y1="121" x2="420" y2="575" gradientUnits="userSpaceOnUse">
      <stop stop-color="#1F3147"/>
      <stop offset="1" stop-color="#121B29"/>
    </linearGradient>
    <linearGradient id="umkmAccent" x1="572" y1="346" x2="1018" y2="518" gradientUnits="userSpaceOnUse">
      <stop stop-color="#10B981"/>
      <stop offset="1" stop-color="#14B8A6"/>
    </linearGradient>
  </defs>
  <rect width="1200" height="720" fill="#0D141E"/>
  <circle cx="1066" cy="140" r="126" fill="#10B981" fill-opacity="0.12"/>
  <circle cx="122" cy="620" r="156" fill="#3B82F6" fill-opacity="0.12"/>
  <rect x="88" y="72" width="1024" height="576" rx="36" fill="url(#umkmBg)" stroke="#273344" stroke-width="4"/>
  <rect x="126" y="106" width="322" height="518" rx="42" fill="#111A27" stroke="#334256" stroke-width="4"/>
  <rect x="154" y="148" width="266" height="436" rx="28" fill="url(#umkmPhone)"/>
  <rect x="244" y="124" width="86" height="8" rx="4" fill="#4A607B"/>
  <rect x="186" y="190" width="126" height="14" rx="7" fill="#9DB1C7"/>
  <rect x="186" y="218" width="168" height="22" rx="11" fill="#F8FAFC"/>
  <rect x="186" y="274" width="202" height="114" rx="24" fill="#10B981" fill-opacity="0.18" stroke="#10B981" stroke-width="2"/>
  <path d="M218 342H304" stroke="#10B981" stroke-width="14" stroke-linecap="round"/>
  <path d="M218 316H342" stroke="#10B981" stroke-width="14" stroke-linecap="round" stroke-opacity="0.75"/>
  <rect x="186" y="420" width="94" height="96" rx="20" fill="#1E2A3D"/>
  <rect x="294" y="420" width="94" height="96" rx="20" fill="#1E2A3D"/>
  <rect x="212" y="448" width="42" height="12" rx="6" fill="#FFA23E"/>
  <rect x="320" y="448" width="42" height="12" rx="6" fill="#3B82F6"/>
  <rect x="520" y="138" width="536" height="406" rx="30" fill="#172233" stroke="#2D3C50" stroke-width="3"/>
  <rect x="552" y="180" width="472" height="30" rx="15" fill="#26374D"/>
  <rect x="580" y="190" width="150" height="10" rx="5" fill="#A0B2C7"/>
  <rect x="552" y="238" width="214" height="118" rx="24" fill="#1E2B3F"/>
  <rect x="780" y="238" width="244" height="118" rx="24" fill="#1E2B3F"/>
  <rect x="552" y="380" width="472" height="122" rx="26" fill="url(#umkmAccent)" fill-opacity="0.15" stroke="#10B981" stroke-width="2"/>
  <rect x="590" y="412" width="170" height="16" rx="8" fill="#E5FFF7"/>
  <rect x="590" y="444" width="278" height="12" rx="6" fill="#B2ECDD"/>
  <rect x="552" y="566" width="198" height="14" rx="7" fill="#41546A"/>
  <text x="126" y="670" fill="#F8FAFC" font-family="Arial, sans-serif" font-size="46" font-weight="700">UMKM App</text>
  <text x="126" y="704" fill="#93A5BC" font-family="Arial, sans-serif" font-size="22">Mobile POS and inventory monitoring for small business operations</text>
</svg>
